<?xml version="1.0" encoding="iso-8859-1"?>
<!-- Generator: Adobe Illustrator 19.0.0, SVG Export Plug-In . SVG Version: 6.00 Build 0)  -->
<svg version="1.1" id="Capa_1" xmlns="http://www.w3.org/2000/svg" xmlns:xlink="http://www.w3.org/1999/xlink" x="0px" y="0px"
	 viewBox="0 0 511.999 511.999" style="enable-background:new 0 0 511.999 511.999;" xml:space="preserve">
<path style="fill:#B5B3B1;" d="M326.763,22.644c-48.871-34.343-115.156-29.491-159.126,13.84c0,0,0.001,0.003,0.002,0.005
	c-24.633,24.289-40.003,58.675-40.003,96.808c0,26.107,0,57.499,0,80.539c0,22.985,18.046,41.79,40.103,41.79
	c26.916,0,154.419,0,177.884,0c22.057,0,40.103-18.805,40.103-41.79v-98.667C385.725,34.997,326.763,22.644,326.763,22.644z"/>
<path style="fill:#AAA6A2;" d="M161.408,173.785c-0.066-0.028-0.131-0.059-0.198-0.087c0-29.808,0-10.458,0-40.401
	c0-38.134,15.37-72.52,40.003-96.808c-0.001-0.002-0.002-0.005-0.002-0.005c19.194-18.916,43.518-31.347,71.087-35.302
	c-37.191-5.305-76.325,7.376-104.661,35.302c0,0,0.001,0.003,0.002,0.005c-24.633,24.289-40.003,58.675-40.003,96.808
	c0,15.522,0,65.084,0,80.539c0,22.985,18.046,41.79,40.103,41.79c6.205,0,13.222,0,15.983,0
	C160.325,227.169,161.504,205.372,161.408,173.785z"/>
<g>
	<path style="fill:#DD9554;" d="M132.967,161.451c0,13.634,13.198,24.685,29.478,24.685v-49.368
		C146.165,136.768,132.967,147.818,132.967,161.451z"/>
	<path style="fill:#DD9554;" d="M379.285,161.451c0,13.634-13.198,24.685-29.479,24.685v-49.368
		C366.088,136.768,379.285,147.818,379.285,161.451z"/>
</g>
<g>
	<path style="fill:#CE884E;" d="M135.975,150.585c-9.559,16.294,4.597,35.552,26.469,35.552v-21.735
		C150.823,164.401,140.775,158.768,135.975,150.585z"/>
	<path style="fill:#CE884E;" d="M349.807,164.401v21.735c22.002,0,35.98-19.342,26.47-35.552
		C371.477,158.768,361.429,164.401,349.807,164.401z"/>
</g>
<path style="fill:#89552E;" d="M415.491,371.66c-6.385-31.718-39.376-36.391-34.339-34.904l0,0
	c-40.321-11.894,9.655,2.849-60.509-17.848l0,0l-24.706-16.709c0-6.321,0-15.47,0-21.772l-0.002,0.001v-0.001
	c-0.092,0.043-0.185,0.082-0.276,0.125v-0.01l0,0l0,0c-0.008,0.003-0.015,0.007-0.022,0.01v-0.125v0.001v-0.001
	c-24.286,11.261-53.21,12.097-79.299,0v0.001l-0.001-0.001v0.125c-0.007-0.003-0.015-0.007-0.022-0.01l0,0l0,0v0.01
	c-0.092-0.043-0.185-0.081-0.276-0.125v0.001l-0.002-0.001c0,7.668,0,14.17,0,21.772l0,0l-24.707,16.708l0,0
	c-57.547,16.975,43.195-12.74-60.509,17.848l0,0c-18.373,6.985-30.01,13.006-34.339,34.904
	c-0.021,0.104-22.933,113.241-22.89,118.582c0.188,23.74,23.566,21.5,24.054,21.758c103.424,0,219.734,0,316.684,0
	c20.262,0,23.981-12.687,24.052-21.757C438.42,485.285,439.822,493.859,415.491,371.66z"/>
<g>
	<path style="fill:#724322;" d="M152.131,511.999v-80.565c0-4.268-3.46-7.728-7.728-7.728c-4.268,0-7.728,3.459-7.728,7.728v80.565
		C142.084,511.999,146.703,511.999,152.131,511.999z"/>
	<path style="fill:#724322;" d="M375.576,511.999v-80.565c0-4.268-3.46-7.728-7.728-7.728s-7.728,3.459-7.728,7.728v80.565
		C365.526,511.999,370.171,511.999,375.576,511.999z"/>
</g>
<g>
	<path style="fill:#AAA6A2;" d="M320.644,318.907l4.087,12.824c5.698,17.878-3.213,37.146-20.525,44.382l-48.084,20.099
		l39.815-94.014L320.644,318.907z"/>
	<path style="fill:#AAA6A2;" d="M191.331,318.907l-3.817,12.824c-5.698,17.878,3.213,37.146,20.525,44.382l48.084,20.099
		l-40.085-94.013L191.331,318.907z"/>
</g>
<path style="fill:#DD9554;" d="M295.937,277.336h-0.001l0,0c-0.092,0.043-0.185,0.082-0.276,0.125v-0.01
	c-0.007,0.003-0.015,0.007-0.022,0.01v-0.125l0,0l0,0c-24.286,11.261-53.21,12.097-79.298,0l0,0h-0.001v0.125
	c-0.007-0.003-0.015-0.007-0.022-0.01v0.01c-0.092-0.043-0.185-0.081-0.276-0.125l0,0h-0.001c-0.001,9.18-0.001,15.694-0.001,24.862
	l40.085,94.014l39.815-94.014C295.937,293.034,295.937,286.512,295.937,277.336z"/>
<path style="fill:#CE884E;" d="M268.55,366.867l-26.753-62.746v-19.113c-8.931-1.363-17.518-3.989-25.459-7.671l0,0h-0.001v0.125
	c-0.007-0.003-0.015-0.007-0.022-0.01v0.01c-0.092-0.043-0.185-0.081-0.276-0.125l0,0h-0.001c-0.001,9.18-0.001,15.694-0.001,24.862
	l25.76,60.416l0,0l14.325,33.598L268.55,366.867z"/>
<path style="fill:#EBAE6D;" d="M161.408,129.988c0.017,42.746-0.05,66.753,0.109,68.996c5.316,69.466,71.327,105.395,127.741,84.34
	c36.292-13.539,61.58-48.442,61.58-88.741v-64.595c0,0,1.67-25.722-10.735-47.843c-4.144-7.389-13.646-9.855-20.814-5.34
	c-13.506,8.506-39.505,19.541-76.141,11.409C187.447,75.849,161.408,129.988,161.408,129.988z"/>
<path style="fill:#DD9554;" d="M189.465,217.602c-4.429-17.621-2.208-23.854-2.816-91.944c0-14.931,6.398-25.058,15.447-34.362
	c-27.554,11.402-40.688,38.692-40.688,38.692c0.018,44.056-0.065,66.51,0.108,68.996c1.576,20.321,6.899,37.046,19.69,53.549
	c20.365,26.366,53.461,40.444,87.536,35.907C236.27,284.712,199.878,259.483,189.465,217.602z"/>
<g>
	<circle style="fill:#DADADA;" cx="257.95" cy="428.989" r="9.264"/>
	<circle style="fill:#DADADA;" cx="257.95" cy="465.559" r="9.264"/>
</g>
<g>
	<path style="fill:#9B948F;" d="M185.293,164.027c-4.699,0-4.787-2.364-28.198-20.167c-3.348-2.645-3.918-7.505-1.271-10.854
		c2.646-3.349,7.507-3.918,10.855-1.271l23.411,18.501c3.348,2.646,3.918,7.506,1.271,10.855
		C189.836,163.021,187.575,164.027,185.293,164.027z"/>
	<path style="fill:#9B948F;" d="M327.904,164.027c-7.288,0-10.553-9.242-4.797-13.791l23.411-18.501
		c3.349-2.646,8.208-2.077,10.855,1.271c2.646,3.349,2.077,8.209-1.271,10.854C332.627,161.712,332.603,164.027,327.904,164.027z"/>
	<path style="fill:#9B948F;" d="M269.438,176.526h-25.68c-4.268,0-7.728-3.459-7.728-7.728c0-4.268,3.46-7.728,7.728-7.728h25.68
		c4.268,0,7.728,3.459,7.728,7.728C277.166,173.066,273.706,176.526,269.438,176.526z"/>
</g>
<g>
	<path style="fill:#F9DDB4;" d="M213.192,135.656c-18.275,0-33.143,14.868-33.143,33.143s14.868,33.142,33.143,33.142
		s33.143-14.867,33.143-33.142S231.467,135.656,213.192,135.656z"/>
	<path style="fill:#F9DDB4;" d="M300.005,135.656c-18.275,0-33.143,14.868-33.143,33.143s14.868,33.142,33.143,33.142
		s33.143-14.867,33.143-33.142S318.28,135.656,300.005,135.656z"/>
</g>
<g>
	<path style="fill:#F9E6CD;" d="M300.005,135.656c-9.688,0-18.417,4.179-24.483,10.828l46.797,46.798
		C344.537,173.014,330.332,135.656,300.005,135.656z"/>
	<path style="fill:#F9E6CD;" d="M213.192,135.656c-9.688,0-18.417,4.179-24.483,10.828l46.797,46.798
		C257.724,173.014,243.518,135.656,213.192,135.656z"/>
</g>
<path style="fill:#724322;" d="M99.727,484.741c23.822-126.865,19.778-134.366,34.191-148.899l-3.097,0.913h0.001l-0.004,0.001
	c-0.425,0.244-18.151,3.237-28.449,19.764c-7.535,12.079-4.819,14.865-28.402,128.22c-1.138,8.042-1.258,27.259,23.679,27.259h25.76
	C98.468,511.999,98.589,492.782,99.727,484.741z"/>
<g>
</g>
<g>
</g>
<g>
</g>
<g>
</g>
<g>
</g>
<g>
</g>
<g>
</g>
<g>
</g>
<g>
</g>
<g>
</g>
<g>
</g>
<g>
</g>
<g>
</g>
<g>
</g>
<g>
</g>
</svg>
