<?xml version="1.0" encoding="iso-8859-1"?>
<!-- Generator: Adobe Illustrator 19.0.0, SVG Export Plug-In . SVG Version: 6.00 Build 0)  -->
<svg version="1.1" id="Capa_1" xmlns="http://www.w3.org/2000/svg" xmlns:xlink="http://www.w3.org/1999/xlink" x="0px" y="0px"
	 viewBox="0 0 512 512" style="enable-background:new 0 0 512 512;" xml:space="preserve">
<polygon style="fill:#636892;" points="349.091,267.636 232.727,197.818 232.727,267.636 116.364,197.818 116.364,267.636 
	0,197.818 0,267.636 0,512 512,512 512,267.636 "/>
<g>
	<polygon style="fill:#424C7E;" points="232.727,256 116.364,197.818 116.364,209.455 232.727,279.273 	"/>
	<polygon style="fill:#424C7E;" points="349.091,256 232.727,197.818 232.727,209.455 349.091,279.273 512,279.273 512,256 	"/>
	<polygon style="fill:#424C7E;" points="116.364,256 0,197.818 0,209.455 116.364,279.273 	"/>
</g>
<path style="fill:#C9D5E3;" d="M465.455,256h-93.091l10.473-164.073c0-5.818,5.818-10.473,11.636-10.473h47.709
	c5.818,0,11.636,4.655,11.636,10.473L465.455,256z"/>
<path style="fill:#424C7E;" d="M477.091,512H302.545V349.091c0-6.982,4.655-11.636,11.636-11.636h151.273
	c6.982,0,11.636,4.655,11.636,11.636V512z"/>
<path style="fill:#4C9CD6;" d="M256,430.545H69.818c-6.982,0-11.636-4.655-11.636-11.636v-46.545
	c0-6.982,4.655-11.636,11.636-11.636H256c6.982,0,11.636,4.655,11.636,11.636v46.545C267.636,425.891,262.982,430.545,256,430.545z"
	/>
<g>
	<path style="fill:#C9D5E3;" d="M453.818,0H337.455c-6.982,0-11.636,4.655-11.636,11.636s4.655,11.636,11.636,11.636h116.364
		c6.982,0,11.636,4.655,11.636,11.636s-4.655,11.636-11.636,11.636h-46.545c-6.982,0-11.636,4.655-11.636,11.636
		s4.655,11.636,11.636,11.636h46.545c19.782,0,34.909-15.127,34.909-34.909S473.6,0,453.818,0z"/>
	<circle style="fill:#C9D5E3;" cx="290.909" cy="11.636" r="11.636"/>
</g>
<g>
	<circle style="fill:#636892;" cx="418.909" cy="430.545" r="11.636"/>
	<circle style="fill:#636892;" cx="360.727" cy="430.545" r="11.636"/>
	<rect x="384" y="337.455" style="fill:#636892;" width="11.636" height="174.545"/>
</g>
<path style="fill:#B0C4D9;" d="M465.455,256h-34.909V93.091c0-6.982,4.655-11.636,11.636-11.636h1.164
	c5.818,0,11.636,4.655,11.636,10.473L465.455,256z"/>
<polygon style="fill:#F04B4D;" points="380.509,137.309 456.145,118.691 454.982,107.055 380.509,125.673 "/>
<polygon style="fill:#DE333F;" points="430.545,125.673 456.145,118.691 454.982,107.055 430.545,114.036 "/>
<polygon style="fill:#F04B4D;" points="378.182,161.745 457.309,141.964 457.309,130.327 379.345,148.945 "/>
<polygon style="fill:#DE333F;" points="430.545,148.945 457.309,141.964 457.309,130.327 430.545,137.309 "/>
<polygon style="fill:#F04B4D;" points="377.018,185.018 459.636,164.073 458.473,152.436 378.182,173.382 "/>
<polygon style="fill:#DE333F;" points="430.545,172.218 459.636,164.073 458.473,152.436 430.545,160.582 "/>
<g>
	<polygon style="fill:#70B7E5;" points="139.636,430.545 116.364,430.545 162.909,360.727 186.182,360.727 	"/>
	<polygon style="fill:#70B7E5;" points="209.455,430.545 162.909,430.545 209.455,360.727 256,360.727 	"/>
</g>
<g>
</g>
<g>
</g>
<g>
</g>
<g>
</g>
<g>
</g>
<g>
</g>
<g>
</g>
<g>
</g>
<g>
</g>
<g>
</g>
<g>
</g>
<g>
</g>
<g>
</g>
<g>
</g>
<g>
</g>
</svg>
